<svg enable-background="new 0 0 110 110" height="512" viewBox="0 0 110 110" width="512" xmlns="http://www.w3.org/2000/svg"><path d="m26.916185 44.920857h10.107072v23.378779h-10.107072z" fill="#f7be56"/><path d="m40.1165886 83.2084885v-26.6223069l-2.5849266-1.0108452-1.7674065 5.3397102c-1.0979309 3.5226364-7.6154175 2.8179741-8.3187866-.0834312l-1.0546494-5.256279-1.2236328.2746124v27.3585396h14.9494019z" fill="#ebf0f3"/><path d="m48.7730064 61.9775429c-.7770119-.8550491-1.6913414-1.5759048-2.705555-2.1313896l-6.5096016-3.5668526-2.0255698-.7053032-.6210136.121727c-.4275055 3.4233208-1.1153259 16.17556-4.9412193 27.512764-3.8258591-11.3340836-4.5244331-24.0832291-4.9519386-27.5096397l-1.5717144-.0031242-1.048521.5741997-6.5283222 3.5762291c-1.0142097.5554848-1.9285393 1.2763405-2.7024632 2.1313896-1.7381945 1.9129143-2.6993389 4.4031868-2.6993389 6.9870491v12.2799988c0 2.0438309 1.6568489 3.7006836 3.7006779 3.7006836h31.603241c2.0438271 0 3.700676-1.6568527 3.700676-3.7006836v-12.2799989c-.0000003-2.5838623-.9611437-5.0741348-2.6993373-6.9870491z" fill="#44c4a1"/><path d="m39.907341 64.4677963-.3495064-8.1884956-2.527977-1.5852966s-.0374451.3526306-.1185837 1.0017052c-.4275246 3.4233284-1.1106758 15.2005539-4.9365559 26.5377579-3.825861-11.3340836-4.529108-23.1082001-4.9566307-26.5346336-.0811405-.6490936-.1185856-1.0048294-.1185856-1.0048294l-2.5016327 1.5759239-.0093708.0093727-.3495082 8.1884955 1.4136486 1.4167557-.5211372 2.3872757c1.1577377 5.2488785 7.0418262 15.0756989 7.0418262 15.0756989s5.8837662-9.8268204 7.0415039-15.0756989l-.5211411-2.3872757z" fill="#3ea69b"/><ellipse cx="31.832" cy="45.686" fill="#fcd462" rx="7.907" ry="11.755"/><path d="m27.6113834 35.6007156s5.7446384 5.7968636 10.9670391 7.6247025c0 0-1.6189423-2.4545288-1.8278389-3.5512314 0 0 1.8278389 1.8800621 2.3500786 5.1701736s-.2611198 6.4757767-.940033 7.4158058c-.6789093.940033-1.8800621 2.0889626-1.8800621 2.0889626s1.0967026 1.3055992 1.0967026 2.1411819.2088966 2.9245453-2.1934052 3.1334381c0 0 1.3055992.1044502 2.767868-.6266861 0 0-.5744629 2.9767685-2.9245415 3.8645744 0 0 2.5862579-.1044464 4.2437859-2.454525 0 0 2.1026001 4.3345871 0 7.415802 0 0 1.5530777-.4700165 2.3364372-1.6711655 0 0 .7311363 2.6111984-.3655701 3.707901 0 0 2.1411858-1.201149 2.8200989-2.767868 0 0 .6789093.2088928.3655663 1.5144958 0 0 1.253376-3.446785.6266861-6.1624298-.6266861-2.7156487-2.8723183-4.2301445-2.8723183-4.2301445s.4177933-5.8490868 1.3055992-8.3558388c.8878098-2.506752.1044502-10.2359009-3.8123512-15.3016281s-5.7446365-6.5279999-10.288126-4.6479378c0 0-.4177914-.8878078-2.1934071 0s-4.6479359 5.953537-5.0657272 8.460289-1.1489277 5.5357399-.9922562 7.3635826c.1566715 1.8278389-1.244442 5.1701736-.0216446 7.9902687s.7527809 4.0734711.7527809 4.0734711-1.880064 2.8200951-2.3500805 4.700161c-.4700146 1.8800659-.4700146 1.4100456-.9400311 2.506752-.4700165 1.0967026-.626688 4.0734711-.626688 4.0734711l1.4100475-2.7678757s.1566715 3.7079086 1.253376 4.4912643c0 0 1.3055992-2.0367355 1.2011528-3.3423309 0 0 1.5144939 1.8800583 2.1411819 2.3500748 0 0-.2088947-3.6556778-.0522232-6.0057564 0 0 1.7233925 3.4467812 5.9535351 3.2901115 0 0-3.3945599-1.6711655-3.2901115-4.0212479.1044483-2.3500786-.313343-6.9980164-.313343-6.9980164l.7311344-2.4023018s-1.4622707-1.7796936-1.9322872-3.7099419-1.1489277-2.0346985-.7833595-4.3325539.1044483-3.394558.5222397-4.647934 1.7756159-4.2823673 2.8200952-5.3790699z" fill="#3a556a"/><path d="m65.9597549 70.7167969-5.1860618 1.7407608-4.7849579-1.7407608v-13.5652275h9.9710197z" fill="#f7be56"/><path d="m77.5513611 73.9786682c-.7665863-.8435745-1.6685715-1.5547409-2.6691818-2.1027069l-6.421936-3.5188599-1.0498581-.5756989h-12.8717385l-1.0343285.5664749-6.4403877 3.5280838c-1.0006104.547966-1.9027214 1.2591324-2.6661263 2.1027069-1.7147636 1.8871307-2.6630707 4.3438568-2.6630707 6.8929672v12.1147003c0 2.0162964 1.634594 3.6508942 3.6509552 3.6508942h31.1777878c2.0162354 0 3.6509552-1.6345978 3.6509552-3.6508942v-12.1147002c.0000001-2.5491104-.9483108-5.0058364-2.6630706-6.8929672z" fill="#d5d6db"/><ellipse cx="68.649" cy="54.839" fill="#fcd462" rx="1.97" ry=".945" transform="matrix(.162 -.987 .987 .162 3.439 113.725)"/><ellipse cx="53.452" cy="54.839" fill="#fcd462" rx=".945" ry="1.97" transform="matrix(.997 -.072 .072 .997 -3.786 3.964)"/><path d="m68.5754089 44.5870323c-1.2109604-1.7859001-6.151516-5.5611801-10.1122093-4.2843018-3.9606934 1.2768135-2.545105 3.6495514-2.545105 3.6495514s-1.3496704-.6836777-2.4832573.0389404c-1.1338463.7225571-1.483799 3.5501671-.9857216 5.8838387.3550453 1.6627808.9148407 4.5008888 1.2081642 5.9995766l-.034996 1.0355377s-.3428268 2.1076012.4406853 3.6478348c.783638 1.5402336 1.51828 2.2435112 2.5467567 3.2699509s2.3729286 1.3447075 4.3453865 1.4084587c1.9724579-.0637512 3.3167839-.382019 4.3452568-1.4084587 1.0284805-1.0264397 1.7629929-1.7297173 2.5466309-3.2699509.6271133-1.2325287.5334549-2.8104324.4708481-3.3988609.0318146-.3939819.3685303-4.2924461 1.4046402-7.1275024 1.0922318-2.9887162.0636292-3.6587144-1.1470795-5.4446145z" fill="#3a556a"/><g fill="#ebf0f3"><path d="m55.9547768 65.2364502h10.0049781l1.4500351 2.5462723h-12.9050445z"/><path d="m55.3471794 13.3627739c-7.5754776 0-13.7165222 5.050478-13.7165222 11.2807083 0 3.6530895 2.1207542 6.8910732 5.3947105 8.9526443l-2.3845634 5.6774902 5.3762169-4.2332687c1.6387062.5689049 3.4396896.8837852 5.3301582.8837852 7.5752373 0 13.7162819-5.050539 13.7162819-11.2806511 0-6.2302302-6.1410446-11.2807082-13.7162819-11.2807082z"/><path d="m85.4399948 44.1525154c-6.6785278 0-12.0924606 4.4524956-12.0924606 9.9450569 0 3.220562 1.8696518 6.075161 4.7559662 7.8926392l-2.1022263 5.0052719 4.7396622-3.732048c1.4446793.5015488 3.0324249.7791443 4.6990585.7791443 6.6783218 0 12.0922546-4.452549 12.0922546-9.9450073.0000001-5.4925614-5.4139327-9.945057-12.0922546-9.945057z"/></g><g fill="#3a556a"><path d="m49.7462425 21.9655075c-1.2019806 0-2.1763878.9743633-2.1763878 2.1763439 0 1.2019348.9744072 2.1763439 2.1763878 2.1763439 1.201889 0 2.1763-.9744091 2.1763-2.1763439.0000001-1.2019806-.9744109-2.1763439-2.1763-2.1763439z"/><path d="m55.5625725 21.9655075c-1.2019806 0-2.1763878.9743633-2.1763878 2.1763439 0 1.2019348.9744072 2.1763439 2.1763878 2.1763439 1.201889 0 2.1763-.9744091 2.1763-2.1763439 0-1.2019806-.974411-2.1763439-2.1763-2.1763439z"/><path d="m61.3789024 21.9655075c-1.2019806 0-2.1763916.9743633-2.1763916 2.1763439 0 1.2019348.974411 2.1763439 2.1763916 2.1763439 1.201889 0 2.1762962-.9744091 2.1762962-2.1763439.0000001-1.2019806-.9744071-2.1763439-2.1762962-2.1763439z"/><path d="m79.9597244 51.7622566c-1.2019806 0-2.1763916.9743614-2.1763916 2.176342 0 1.2019348.974411 2.1763458 2.1763916 2.1763458 1.201889 0 2.1763-.974411 2.1763-2.1763458.0000001-1.2019806-.9744109-2.176342-2.1763-2.176342z"/><path d="m85.7760544 51.7622566c-1.2019806 0-2.1763916.9743614-2.1763916 2.176342 0 1.2019348.974411 2.1763458 2.1763916 2.1763458 1.201889 0 2.1763-.974411 2.1763-2.1763458 0-1.2019806-.974411-2.176342-2.1763-2.176342z"/><path d="m91.5923843 51.7622566c-1.2019806 0-2.1763916.9743614-2.1763916 2.176342 0 1.2019348.974411 2.1763458 2.1763916 2.1763458 1.201889 0 2.1763-.974411 2.1763-2.1763458.0000001-1.2019806-.9744109-2.176342-2.1763-2.176342z"/></g></svg>