<svg enable-background="new 0 0 100 100" height="512" viewBox="0 0 100 100" width="512" xmlns="http://www.w3.org/2000/svg"><path d="m51.5115585 71.3974609 20.6238861-6.4642028-5.079071-11.5217438-10.0760193-4.2745438v-4.5949669h-13.5963669v4.5949669l-10.076107 4.2745438-5.0789852 11.5217438 20.623888 6.4642028z" fill="#fed35b"/><path d="m72.1389084 64.9354706-20.6289101 6.4647598h-2.6540108l-20.628912-6.4647598 5.0808887-11.5243912 8.1111145-3.4416885c2.2991943 2.1430969 5.3789635 3.4416885 8.7639122 3.4416885 3.3849525 0 6.4648094-1.2985916 8.7640038-3.4416885l8.1110268 3.4416885z" fill="#ededed"/><path d="m55.9643288 12.500926c.127079-.4853582.201664-.9919834.201664-1.517189-.0000001-3.3047357-2.678959-5.983737-5.9838677-5.983737-3.3047333 0-5.9836922 2.6790013-5.9836922 5.983737 0 .5252056.0744972 1.0318737.2015762 1.5172329-5.5898972 2.7141705-9.5307198 9.2410021-9.5307198 16.8659325 0 10.0590858 6.855835 18.2136383 15.3130112 18.2136383 8.4570045 0 15.3128319-8.1545525 15.3128319-18.2136383 0-7.6249743-3.9409065-14.1518488-9.5308036-16.8659764z" fill="#344d5b"/><path d="m50.1821327 18.3759079c-2.1949158 10.7963219-12.871273 6.8230019-12.871273 15.2396393 0 8.4165916 5.7626686 15.2395935 12.871273 15.2395935 7.1086884 0 12.871315-6.8230019 12.871315-15.2395935 0-8.4166374-11.4550781-22.2058239-12.871315-15.2396393z" fill="#feda6f"/><path d="m55.8937302 53.4086723h-11.4293023l-25.0151977-11.5625381v41.582447l25.0151977 11.5714188h11.4293023l25.0239715-11.5714188v-41.582447z" fill="#de594e"/><g fill="#fed35b"><path d="m81.8798218 57.2449493-3.4847183 1.0850945c-.7377701.2297287-1.1495895 1.0139885-.9198608 1.7517624.2297211.7377357 1.0139923 1.1495895 1.7517624.919857l3.4847183-1.0850906c.7377701-.2297325 1.1495819-1.0140266.9198608-1.7517624-.2297287-.7377701-1.0139923-1.1495896-1.7517624-.9198609z"/><path d="m81.8798218 60.077816-3.4847183 1.0850906c-.7377701.2297287-1.1495895 1.0139885-.9198608 1.7517624.2297211.7377357 1.0139923 1.1495857 1.7517624.919857l3.4847183-1.0850906c.7377701-.2297325 1.1495819-1.0140266.9198608-1.7517624-.2297287-.73777-1.0139923-1.1495895-1.7517624-.919857z"/><path d="m81.8798218 62.9106789-3.4847183 1.0850906c-.7377701.2297325-1.1495895 1.0139885-.9198608 1.7517586.2297211.7377396 1.0139923 1.1495895 1.7517624.9198608l3.4847183-1.0850906c.7377701-.2297287 1.1495819-1.0140228.9198608-1.7517624-.2297287-.7377701-1.0139923-1.1495895-1.7517624-.919857z"/><path d="m81.8798218 65.7435379-3.4847183 1.0850906c-.7377701.2297363-1.1495895 1.0139923-.9198608 1.7517624.2297211.7377396 1.0139923 1.1495895 1.7517624.9198608l3.4847183-1.0850906c.7377701-.2297287 1.1495819-1.0140228.9198608-1.7517624-.2297287-.73777-1.0139923-1.1495895-1.7517624-.9198608z"/><path d="m18.1201782 57.2449493 3.4847183 1.0850945c.7377701.2297287 1.1495895 1.0139885.9198589 1.7517624-.2297211.7377357-1.0139923 1.1495895-1.7517643.919857l-3.4847164-1.0850906c-.737772-.2297325-1.14958-1.0140266-.9198589-1.7517624.2297306-.7377701 1.0139923-1.1495896 1.7517624-.9198609z"/><path d="m18.1201782 60.077816 3.4847183 1.0850906c.7377701.2297287 1.1495895 1.0139885.9198589 1.7517624-.2297211.7377357-1.0139923 1.1495857-1.7517643.919857l-3.4847164-1.0850906c-.737772-.2297325-1.14958-1.0140266-.9198589-1.7517624.2297306-.73777 1.0139923-1.1495895 1.7517624-.919857z"/><path d="m18.1201782 62.9106789 3.4847183 1.0850906c.7377701.2297325 1.1495895 1.0139885.9198589 1.7517586-.2297211.7377396-1.0139923 1.1495895-1.7517643.9198608l-3.4847164-1.0850906c-.737772-.2297287-1.14958-1.0140228-.9198589-1.7517624.2297306-.7377701 1.0139923-1.1495895 1.7517624-.919857z"/><path d="m18.1201782 65.7435379 3.4847183 1.0850906c.7377701.2297363 1.1495895 1.0139923.9198589 1.7517624-.2297211.7377396-1.0139923 1.1495895-1.7517643.9198608l-3.4847164-1.0850906c-.737772-.2297287-1.14958-1.0140228-.9198589-1.7517624.2297306-.73777 1.0139923-1.1495895 1.7517624-.9198608z"/></g><path d="m44.466072 53.411518h11.432103v41.584557h-11.432103z" fill="#cd5248"/></svg>